<?xml version="1.0" standalone="no"?>
<!DOCTYPE svg PUBLIC "-//W3C//DTD SVG 20010904//EN"
 "http://www.w3.org/TR/2001/REC-SVG-20010904/DTD/svg10.dtd">
<svg version="1.0" xmlns="http://www.w3.org/2000/svg"
 width="558.000000pt" height="558.000000pt" viewBox="0 0 558.000000 558.000000"
 preserveAspectRatio="xMidYMid meet">
<metadata>
Created by potrace 1.14, written by Peter Selinger 2001-2017
</metadata>
<g transform="translate(0.000000,558.000000) scale(0.100000,-0.100000)"
fill="#000000" stroke="none">
<path d="M0 2790 l0 -2790 2790 0 2790 0 0 2790 0 2790 -2790 0 -2790 0 0
-2790z m3031 1780 c657 -65 1173 -429 1384 -977 19 -51 35 -97 35 -103 0 -7
-132 -10 -404 -10 l-404 0 -46 69 c-178 267 -501 403 -876 371 -262 -23 -469
-118 -644 -294 -159 -161 -250 -347 -291 -595 -26 -154 -17 -447 19 -587 113
-450 434 -737 889 -794 209 -26 426 0 600 71 86 36 218 123 274 181 58 61 150
200 190 287 27 58 83 226 83 247 0 2 -269 5 -597 6 l-598 3 -3 268 -2 267 950
0 951 0 -3 -332 c-4 -331 -4 -334 -31 -423 -102 -329 -284 -605 -540 -813
-332 -271 -705 -402 -1144 -402 -485 0 -922 167 -1240 474 -329 316 -499 687
-532 1163 -37 524 117 1000 442 1365 110 122 168 173 302 263 352 236 786 339
1236 295z"/>
</g>
</svg>
