<svg width="64" height="64" viewBox="0 0 64 64" fill="none" xmlns="http://www.w3.org/2000/svg">
<g clip-path="url(#clip0_118_747)">
<path d="M51.4544 36.3975H41.7091C41.2166 36.3975 40.769 36.6875 40.5665 37.1374C40.3665 37.5874 40.449 38.1149 40.7765 38.4824C41.189 38.9424 41.4165 39.5374 41.4165 40.1575C41.4165 41.545 40.2891 42.6725 38.9015 42.6725C37.514 42.6725 36.3865 41.545 36.3865 40.1575C36.3865 39.5375 36.614 38.9425 37.0265 38.4824C37.3565 38.1149 37.439 37.59 37.2365 37.1374C37.0365 36.6874 36.589 36.3975 36.094 36.3975H27.5993V27.9027C27.5993 26.8478 26.3342 26.2377 25.5143 26.9728C25.0543 27.3853 24.4593 27.6128 23.8393 27.6128C22.4518 27.6128 21.3243 26.4853 21.3243 25.0977C21.3243 23.7102 22.4518 22.5827 23.8393 22.5827C24.4593 22.5827 25.0542 22.8102 25.5143 23.2227C26.3068 23.9352 27.5993 23.3802 27.5993 22.2928V12.5475C27.5993 11.8575 27.0393 11.2975 26.3493 11.2975H1.24657C0.556582 11.2975 -0.00341797 11.8575 -0.00341797 12.5475V62.7523C-0.00341797 63.4423 0.556582 64.0023 1.24657 64.0023H51.4514C52.1414 64.0023 52.7014 63.4423 52.7014 62.7523V37.6496C52.7014 36.9596 52.1414 36.3996 51.4514 36.3996L51.4544 36.3975ZM2.49947 13.7952H25.1017V20.2426C21.9042 19.4126 18.8267 21.8451 18.8267 25.0951C18.8267 28.3525 21.9117 30.7776 25.1017 29.9475V36.3949H16.607C16.1145 36.3949 15.667 36.6849 15.4645 37.1349C15.2645 37.5849 15.347 38.1123 15.6745 38.4799C16.087 38.9399 16.3145 39.5349 16.3145 40.1549C16.3145 41.5424 15.187 42.6699 13.7995 42.6699C12.4119 42.6699 11.2844 41.5424 11.2844 40.1549C11.2844 39.5349 11.5119 38.9399 11.9244 38.4799C12.2545 38.1124 12.3369 37.5874 12.1345 37.1349C11.9345 36.6849 11.487 36.3949 10.9919 36.3949H2.4972V13.7927L2.49947 13.7952ZM2.49947 38.8979H8.94427C8.11924 42.0805 10.5343 45.1729 13.7992 45.1729C17.0618 45.1729 19.4792 42.083 18.6542 38.8979H25.099V45.3427C21.9165 44.5177 18.824 46.9328 18.824 50.1977C18.824 53.4602 21.914 55.8777 25.099 55.0527V61.4975H2.49678L2.49947 38.8979ZM50.2044 61.5002H27.6022V53.0055C27.6022 52.513 27.3122 52.0654 26.8622 51.8629C26.4122 51.6629 25.8848 51.7454 25.5172 52.0729C25.0572 52.4854 24.4622 52.7129 23.8422 52.7129C22.4547 52.7129 21.3272 51.5854 21.3272 50.1979C21.3272 48.8104 22.4547 47.6829 23.8422 47.6829C24.4622 47.6829 25.0572 47.9104 25.5172 48.3229C25.8847 48.6529 26.4122 48.7354 26.8622 48.5329C27.3122 48.3329 27.6022 47.8854 27.6022 47.3904V38.8957H34.047C33.222 42.0706 35.6295 45.1707 38.902 45.1707C42.1645 45.1707 44.582 42.0807 43.7569 38.8957H50.2017V61.4979L50.2044 61.5002Z" fill="#4365B1"/>
<path d="M60.2398 11.2851C60.8598 11.2851 61.4547 11.5126 61.9148 11.9251C62.2823 12.2551 62.8097 12.3376 63.2598 12.1351C63.7098 11.9351 63.9998 11.4876 63.9998 10.9926V1.2473C63.9998 0.557314 63.4398 -0.00268555 62.7498 -0.00268555H53.0045C52.512 -0.00268555 52.0645 0.287318 51.862 0.737346C51.662 1.18734 51.7445 1.71482 52.072 2.08237C52.4845 2.54237 52.712 3.13735 52.712 3.75738C52.712 5.1449 51.5845 6.27239 50.197 6.27239C48.8094 6.27239 47.6819 5.1449 47.6819 3.75738C47.6819 3.13738 47.9094 2.5424 48.3219 2.08237C48.6519 1.71487 48.7344 1.18739 48.5319 0.737346C48.3319 0.28735 47.8845 -0.00268555 47.3894 -0.00268555H37.6441C36.9541 -0.00268555 36.3942 0.557314 36.3942 1.2473V8.94202C33.2116 8.11699 30.1191 10.532 30.1191 13.797C30.1191 17.0595 33.2091 19.477 36.3942 18.652V26.3467C36.3942 27.0367 36.9541 27.5967 37.6441 27.5967H45.3389C44.5138 30.7792 46.9289 33.8717 50.1938 33.8717C53.4564 33.8717 55.8738 30.7817 55.0488 27.5967H62.7461C63.4361 27.5967 63.9961 27.0367 63.9961 26.3467V16.6014C63.9961 16.1089 63.7061 15.6614 63.2561 15.4589C62.8061 15.2589 62.2786 15.3414 61.9111 15.6689C61.4511 16.0814 60.8561 16.3089 60.2361 16.3089C58.8486 16.3089 57.7211 15.1814 57.7211 13.7939C57.7211 12.4064 58.8486 11.2789 60.2361 11.2789L60.2398 11.2851ZM61.4998 18.6553V25.1001H53.0051C52.5126 25.1001 52.065 25.3901 51.8625 25.8401C51.6625 26.2901 51.745 26.8176 52.0725 27.1851C52.485 27.6451 52.7125 28.2401 52.7125 28.8601C52.7125 30.2477 51.5851 31.3752 50.1975 31.3752C48.81 31.3752 47.6825 30.2477 47.6825 28.8601C47.6825 28.2401 47.91 27.6452 48.3225 27.1851C48.6525 26.8176 48.735 26.2902 48.5325 25.8401C48.3325 25.3901 47.885 25.1001 47.39 25.1001H38.8953V16.6054C38.8953 16.1129 38.6053 15.6654 38.1553 15.4629C37.7053 15.2629 37.1778 15.3454 36.8103 15.6729C36.3503 16.0854 35.7553 16.3129 35.1353 16.3129C33.7477 16.3129 32.6203 15.1854 32.6203 13.7979C32.6203 12.4104 33.7477 11.2829 35.1353 11.2829C35.7553 11.2829 36.3502 11.5104 36.8103 11.9229C37.1778 12.2529 37.7028 12.3354 38.1553 12.1329C38.6053 11.9329 38.8953 11.4854 38.8953 10.9903V2.49563H45.3401C44.515 5.67815 46.9301 8.77063 50.195 8.77063C53.4576 8.77063 55.875 5.68065 55.05 2.49563H61.4948V8.94043C58.3123 8.1154 55.2198 10.5304 55.2198 13.7954C55.2198 17.0579 58.3098 19.4754 61.4948 18.6504L61.4998 18.6553Z" fill="#4365B1"/>
</g>
<defs>
<clipPath id="clip0_118_747">
<rect width="64" height="64" fill="white"/>
</clipPath>
</defs>
</svg>
