<svg width="64" height="64" viewBox="0 0 64 64" fill="none" xmlns="http://www.w3.org/2000/svg">
<g clip-path="url(#clip0_118_751)">
<path d="M43.2552 20.5016C43.4514 25.7134 39.9374 30.4457 34.8973 31.7448C34.1901 31.9286 33.6948 32.561 33.6948 33.2869V35.29C33.6948 36.1716 32.9814 36.885 32.0998 36.885C31.2182 36.885 30.5048 36.1716 30.5048 35.29V33.2869C30.5048 31.1093 31.9845 29.2059 34.1029 28.6576C37.701 27.7292 40.212 24.3492 40.0686 20.6235C39.916 16.5549 36.4799 13.122 32.4113 12.9662C30.2088 12.8821 28.1433 13.6733 26.5702 15.1905C24.9938 16.7076 24.1247 18.7481 24.1247 20.935C24.1247 21.8167 23.4113 22.53 22.5297 22.53C21.6481 22.53 20.9347 21.8166 20.9347 20.935C20.9347 17.8728 22.1496 15.016 24.3553 12.8914C26.5609 10.7667 29.4456 9.66392 32.5329 9.77924C38.3273 9.99731 43.0377 14.7076 43.2554 20.5017L43.2552 20.5016ZM32.0996 40.0748C31.218 40.0748 30.5046 40.7882 30.5046 41.6698C30.5046 42.5514 31.218 43.2648 32.0996 43.2648C32.9812 43.2648 33.6946 42.5514 33.6946 41.6698C33.6946 40.7882 32.9812 40.0748 32.0996 40.0748ZM63.9999 11.3645V41.6698C63.9999 47.8256 58.9906 52.8349 52.8348 52.8349H33.5575L22.8597 63.5327C22.5544 63.838 22.1463 64 21.7319 64C21.5263 64 21.3176 63.9595 21.1214 63.8785C20.5263 63.6324 20.1369 63.0498 20.1369 62.4049V52.8349H11.3643C5.20852 52.8349 0.199219 47.8255 0.199219 41.6697V11.3645C0.199219 5.20865 5.20852 0.199341 11.3643 0.199341H52.8347C58.9905 0.199341 63.9998 5.20865 63.9998 11.3645L63.9999 11.3645ZM60.8099 11.3645C60.8099 6.9658 57.2336 3.38945 52.8348 3.38945H11.3644C6.96569 3.38945 3.38935 6.9658 3.38935 11.3645V41.6698C3.38935 46.0686 6.96569 49.6449 11.3644 49.6449H21.732C22.6137 49.6449 23.327 50.3583 23.327 51.2399V58.5546L31.7695 50.1122C32.0685 49.8131 32.4735 49.6449 32.8972 49.6449H52.8349C57.2336 49.6449 60.81 46.0685 60.81 41.6698L60.8099 11.3645Z" fill="#4365B1"/>
</g>
<defs>
<clipPath id="clip0_118_751">
<rect width="64" height="64" fill="white"/>
</clipPath>
</defs>
</svg>
